<svg width="270" height="224" viewBox="0 0 270 224" fill="none" xmlns="http://www.w3.org/2000/svg">
<path d="M8.99609 153.047V163H6.94531V154.653H2.94629V163H0.895508V153.047H8.99609ZM17.8448 153.047V154.653H12.8956V153.047H17.8448ZM19.3077 153.047V163H17.2569V153.047H19.3077ZM12.6358 153.047H14.6798L14.4268 158.044C14.3904 158.791 14.3197 159.441 14.2149 159.992C14.1147 160.544 13.9779 161.013 13.8048 161.4C13.6316 161.783 13.4174 162.093 13.1622 162.33C12.9115 162.562 12.6153 162.733 12.2735 162.843C11.9317 162.948 11.5421 163 11.1046 163H10.5987V161.4L10.8585 161.38C11.0818 161.357 11.2777 161.298 11.4464 161.202C11.615 161.106 11.7585 160.963 11.877 160.771C12.0001 160.58 12.1003 160.336 12.1778 160.04C12.2598 159.739 12.3236 159.372 12.3692 158.939C12.4193 158.507 12.4535 158.001 12.4718 157.422L12.6358 153.047ZM25.6818 154.749L22.9748 163H20.7941L24.4923 153.047H25.88L25.6818 154.749ZM27.9308 163L25.217 154.749L24.9982 153.047H26.3996L30.1183 163H27.9308ZM27.8078 159.295V160.901H22.5509V159.295H27.8078ZM38.0989 157.101V158.7H32.9036V157.101H38.0989ZM33.512 153.047V163H31.4612V153.047H33.512ZM39.5618 153.047V163H37.5178V153.047H39.5618ZM44.89 159.391L47.3372 153.047H49.5452L46.1341 161.072C46.0156 161.346 45.8789 161.608 45.7239 161.858C45.5736 162.104 45.3935 162.326 45.1839 162.521C44.9743 162.713 44.7236 162.866 44.432 162.979C44.1403 163.089 43.7917 163.144 43.3861 163.144C43.2858 163.144 43.1627 163.141 43.0169 163.137C42.8711 163.132 42.7549 163.125 42.6683 163.116L42.6546 161.517C42.7093 161.53 42.7959 161.539 42.9144 161.544C43.0329 161.544 43.1195 161.544 43.1741 161.544C43.443 161.544 43.6549 161.505 43.8099 161.428C43.9648 161.35 44.0879 161.241 44.179 161.1C44.2747 160.954 44.359 160.783 44.432 160.587L44.89 159.391ZM43.2698 153.047L45.5394 157.976L46.1751 160.238L44.6507 160.266L41.0687 153.047H43.2698ZM54.9281 158.632H52.3715L52.3578 157.224H54.5043C54.8826 157.224 55.1924 157.176 55.434 157.08C55.6755 156.98 55.8555 156.836 55.974 156.649C56.0971 156.458 56.1586 156.226 56.1586 155.952C56.1586 155.642 56.0993 155.392 55.9809 155.2C55.8669 155.009 55.6869 154.87 55.4408 154.783C55.1993 154.697 54.8871 154.653 54.5043 154.653H53.0824V163H51.0316V153.047H54.5043C55.0831 153.047 55.6003 153.102 56.0561 153.211C56.5163 153.32 56.906 153.487 57.225 153.71C57.544 153.933 57.7878 154.216 57.9564 154.558C58.1251 154.895 58.2094 155.296 58.2094 155.761C58.2094 156.171 58.1159 156.549 57.9291 156.896C57.7468 157.242 57.4574 157.524 57.0609 157.743C56.669 157.962 56.1563 158.083 55.5229 158.105L54.9281 158.632ZM54.8393 163H51.8109L52.6107 161.4H54.8393C55.1993 161.4 55.4932 161.343 55.7211 161.229C55.949 161.111 56.1176 160.951 56.227 160.751C56.3363 160.55 56.391 160.32 56.391 160.061C56.391 159.769 56.3409 159.516 56.2406 159.302C56.1449 159.088 55.99 158.924 55.7758 158.81C55.5616 158.691 55.279 158.632 54.9281 158.632H52.9525L52.9662 157.224H55.4271L55.8988 157.777C56.5049 157.768 56.9926 157.875 57.3617 158.099C57.7354 158.317 58.0066 158.602 58.1752 158.953C58.3484 159.304 58.435 159.68 58.435 160.081C58.435 160.719 58.296 161.257 58.018 161.694C57.74 162.127 57.3321 162.453 56.7943 162.672C56.2611 162.891 55.6094 163 54.8393 163ZM64.4399 154.749L61.7329 163H59.5522L63.2505 153.047H64.6382L64.4399 154.749ZM66.6889 163L63.9751 154.749L63.7563 153.047H65.1577L68.8764 163H66.6889ZM66.5659 159.295V160.901H61.3091V159.295H66.5659ZM76.857 157.101V158.7H71.6617V157.101H76.857ZM72.2701 153.047V163H70.2193V153.047H72.2701ZM78.3199 153.047V163H76.2759V153.047H78.3199ZM87.1618 157.101V158.7H81.9664V157.101H87.1618ZM82.5748 153.047V163H80.5241V153.047H82.5748ZM88.6246 153.047V163H86.5807V153.047H88.6246ZM96.1198 159.384H93.4128L92.7224 159.097C91.9431 158.851 91.3461 158.481 90.9314 157.989C90.5212 157.497 90.3161 156.87 90.3161 156.109C90.3161 155.439 90.4642 154.879 90.7605 154.428C91.0612 153.972 91.4851 153.628 92.032 153.396C92.5834 153.163 93.2374 153.047 93.9939 153.047H97.4665V163H95.4089V154.653H93.9939C93.4333 154.653 93.0209 154.792 92.7566 155.07C92.4922 155.348 92.3601 155.743 92.3601 156.253C92.3601 156.627 92.4216 156.934 92.5446 157.176C92.6677 157.413 92.8477 157.59 93.0847 157.709C93.3217 157.823 93.6202 157.88 93.9802 157.88H96.113L96.1198 159.384ZM94.1443 158.557L91.9362 163H89.7146L91.9294 158.557H94.1443Z" fill="#212121"/>
<path d="M4.83301 183.047V193H3.53418V183.047H4.83301ZM8.03223 183.047V184.127H0.341797V183.047H8.03223ZM13.3194 191.735V187.928C13.3194 187.636 13.2602 187.383 13.1417 187.169C13.0277 186.95 12.8546 186.782 12.6221 186.663C12.3897 186.545 12.1026 186.485 11.7608 186.485C11.4418 186.485 11.1615 186.54 10.92 186.649C10.683 186.759 10.4962 186.902 10.3595 187.08C10.2273 187.258 10.1612 187.449 10.1612 187.654H8.89656C8.89656 187.39 8.96492 187.128 9.10164 186.868C9.23836 186.608 9.43432 186.374 9.68953 186.164C9.9493 185.95 10.2592 185.781 10.6192 185.658C10.9838 185.531 11.3894 185.467 11.836 185.467C12.3738 185.467 12.8477 185.558 13.2579 185.74C13.6726 185.923 13.9962 186.198 14.2286 186.567C14.4656 186.932 14.5841 187.39 14.5841 187.941V191.387C14.5841 191.633 14.6046 191.895 14.6456 192.173C14.6912 192.451 14.7572 192.69 14.8438 192.891V193H13.5245C13.4607 192.854 13.4106 192.66 13.3741 192.419C13.3376 192.173 13.3194 191.945 13.3194 191.735ZM13.5382 188.516L13.5518 189.404H12.2735C11.9135 189.404 11.5922 189.434 11.3096 189.493C11.0271 189.548 10.7901 189.632 10.5987 189.746C10.4073 189.86 10.2615 190.004 10.1612 190.177C10.061 190.345 10.0108 190.544 10.0108 190.771C10.0108 191.004 10.0632 191.216 10.168 191.407C10.2729 191.599 10.4301 191.751 10.6397 191.865C10.8539 191.975 11.116 192.029 11.4259 192.029C11.8132 192.029 12.155 191.947 12.4513 191.783C12.7475 191.619 12.9822 191.419 13.1554 191.182C13.3331 190.945 13.4288 190.715 13.4425 190.491L13.9825 191.1C13.9506 191.291 13.864 191.503 13.7227 191.735C13.5815 191.968 13.3923 192.191 13.1554 192.405C12.9229 192.615 12.6449 192.79 12.3214 192.932C12.0024 193.068 11.6423 193.137 11.2413 193.137C10.74 193.137 10.3002 193.039 9.92195 192.843C9.54826 192.647 9.25659 192.385 9.04695 192.057C8.84188 191.724 8.73934 191.353 8.73934 190.942C8.73934 190.546 8.81681 190.197 8.97176 189.896C9.12671 189.591 9.35001 189.338 9.64168 189.138C9.93335 188.933 10.2843 188.778 10.6944 188.673C11.1046 188.568 11.5626 188.516 12.0684 188.516H13.5382ZM18.3673 185.604V193H17.1027V185.604H18.3673ZM23.2209 185.604L19.714 189.842H17.9435L17.7521 188.734H19.2013L21.6828 185.604H23.2209ZM21.8605 193L19.1398 189.65L19.9533 188.734L23.467 193H21.8605ZM31.8402 192.098C32.1409 192.098 32.4189 192.036 32.6741 191.913C32.9293 191.79 33.139 191.621 33.303 191.407C33.4671 191.188 33.5605 190.94 33.5833 190.662H34.7864C34.7637 191.1 34.6155 191.507 34.3421 191.886C34.0732 192.259 33.72 192.562 33.2825 192.795C32.845 193.023 32.3642 193.137 31.8402 193.137C31.2842 193.137 30.7988 193.039 30.3841 192.843C29.9739 192.647 29.6321 192.378 29.3587 192.036C29.0898 191.694 28.887 191.302 28.7503 190.86C28.6182 190.414 28.5521 189.942 28.5521 189.445V189.158C28.5521 188.661 28.6182 188.192 28.7503 187.75C28.887 187.303 29.0898 186.909 29.3587 186.567C29.6321 186.226 29.9739 185.957 30.3841 185.761C30.7988 185.565 31.2842 185.467 31.8402 185.467C32.4189 185.467 32.9248 185.585 33.3577 185.822C33.7907 186.055 34.1302 186.374 34.3763 186.779C34.6269 187.18 34.7637 187.636 34.7864 188.146H33.5833C33.5605 187.841 33.4739 187.565 33.3236 187.319C33.1777 187.073 32.9772 186.877 32.722 186.731C32.4713 186.581 32.1774 186.506 31.8402 186.506C31.4528 186.506 31.1269 186.583 30.8626 186.738C30.6029 186.889 30.3955 187.094 30.2405 187.354C30.0902 187.609 29.9808 187.894 29.9124 188.208C29.8486 188.518 29.8167 188.835 29.8167 189.158V189.445C29.8167 189.769 29.8486 190.088 29.9124 190.402C29.9762 190.717 30.0833 191.002 30.2337 191.257C30.3887 191.512 30.596 191.717 30.8558 191.872C31.1201 192.022 31.4482 192.098 31.8402 192.098ZM40.9896 191.735V187.928C40.9896 187.636 40.9304 187.383 40.8119 187.169C40.698 186.95 40.5248 186.782 40.2924 186.663C40.06 186.545 39.7729 186.485 39.4311 186.485C39.112 186.485 38.8318 186.54 38.5902 186.649C38.3533 186.759 38.1664 186.902 38.0297 187.08C37.8975 187.258 37.8314 187.449 37.8314 187.654H36.5668C36.5668 187.39 36.6352 187.128 36.7719 186.868C36.9086 186.608 37.1046 186.374 37.3598 186.164C37.6195 185.95 37.9294 185.781 38.2895 185.658C38.654 185.531 39.0596 185.467 39.5062 185.467C40.044 185.467 40.518 185.558 40.9281 185.74C41.3428 185.923 41.6664 186.198 41.8988 186.567C42.1358 186.932 42.2543 187.39 42.2543 187.941V191.387C42.2543 191.633 42.2748 191.895 42.3158 192.173C42.3614 192.451 42.4275 192.69 42.5141 192.891V193H41.1947C41.1309 192.854 41.0808 192.66 41.0443 192.419C41.0079 192.173 40.9896 191.945 40.9896 191.735ZM41.2084 188.516L41.2221 189.404H39.9437C39.5837 189.404 39.2624 189.434 38.9799 189.493C38.6973 189.548 38.4604 189.632 38.2689 189.746C38.0775 189.86 37.9317 190.004 37.8314 190.177C37.7312 190.345 37.6811 190.544 37.6811 190.771C37.6811 191.004 37.7335 191.216 37.8383 191.407C37.9431 191.599 38.1003 191.751 38.31 191.865C38.5242 191.975 38.7862 192.029 39.0961 192.029C39.4835 192.029 39.8253 191.947 40.1215 191.783C40.4177 191.619 40.6524 191.419 40.8256 191.182C41.0033 190.945 41.099 190.715 41.1127 190.491L41.6527 191.1C41.6208 191.291 41.5342 191.503 41.393 191.735C41.2517 191.968 41.0626 192.191 40.8256 192.405C40.5932 192.615 40.3152 192.79 39.9916 192.932C39.6726 193.068 39.3126 193.137 38.9115 193.137C38.4102 193.137 37.9704 193.039 37.5922 192.843C37.2185 192.647 36.9268 192.385 36.7172 192.057C36.5121 191.724 36.4096 191.353 36.4096 190.942C36.4096 190.546 36.487 190.197 36.642 189.896C36.7969 189.591 37.0202 189.338 37.3119 189.138C37.6036 188.933 37.9545 188.778 38.3646 188.673C38.7748 188.568 39.2328 188.516 39.7387 188.516H41.2084ZM48.9155 191.318L51.4311 185.604H52.6479L49.353 193H48.478L45.1968 185.604H46.4136L48.9155 191.318ZM46.0444 185.604V193H44.7798V185.604H46.0444ZM51.7456 193V185.604H53.0171V193H51.7456ZM55.1392 189.384V189.227C55.1392 188.693 55.2167 188.199 55.3716 187.743C55.5266 187.283 55.7499 186.884 56.0416 186.547C56.3332 186.205 56.6864 185.941 57.1011 185.754C57.5158 185.562 57.9807 185.467 58.4957 185.467C59.0152 185.467 59.4823 185.562 59.897 185.754C60.3163 185.941 60.6718 186.205 60.9634 186.547C61.2597 186.884 61.4852 187.283 61.6402 187.743C61.7951 188.199 61.8726 188.693 61.8726 189.227V189.384C61.8726 189.917 61.7951 190.411 61.6402 190.867C61.4852 191.323 61.2597 191.722 60.9634 192.063C60.6718 192.401 60.3186 192.665 59.9039 192.856C59.4937 193.043 59.0289 193.137 58.5093 193.137C57.9898 193.137 57.5227 193.043 57.108 192.856C56.6933 192.665 56.3378 192.401 56.0416 192.063C55.7499 191.722 55.5266 191.323 55.3716 190.867C55.2167 190.411 55.1392 189.917 55.1392 189.384ZM56.4039 189.227V189.384C56.4039 189.753 56.4472 190.102 56.5337 190.43C56.6203 190.753 56.7502 191.04 56.9234 191.291C57.1011 191.542 57.3222 191.74 57.5865 191.886C57.8508 192.027 58.1584 192.098 58.5093 192.098C58.8557 192.098 59.1587 192.027 59.4185 191.886C59.6828 191.74 59.9016 191.542 60.0748 191.291C60.2479 191.04 60.3778 190.753 60.4644 190.43C60.5556 190.102 60.6011 189.753 60.6011 189.384V189.227C60.6011 188.862 60.5556 188.518 60.4644 188.194C60.3778 187.866 60.2457 187.577 60.0679 187.326C59.8948 187.071 59.676 186.87 59.4117 186.725C59.1519 186.579 58.8466 186.506 58.4957 186.506C58.1493 186.506 57.844 186.579 57.5796 186.725C57.3199 186.87 57.1011 187.071 56.9234 187.326C56.7502 187.577 56.6203 187.866 56.5337 188.194C56.4472 188.518 56.4039 188.862 56.4039 189.227ZM69.1452 185.604V193H67.8806V185.604H69.1452ZM73.9987 185.604L70.4919 189.842H68.7214L68.53 188.734H69.9792L72.4607 185.604H73.9987ZM72.6384 193L69.9177 189.65L70.7312 188.734L74.2448 193H72.6384ZM75.2801 189.384V189.227C75.2801 188.693 75.3575 188.199 75.5125 187.743C75.6674 187.283 75.8908 186.884 76.1824 186.547C76.4741 186.205 76.8273 185.941 77.242 185.754C77.6567 185.562 78.1215 185.467 78.6365 185.467C79.1561 185.467 79.6232 185.562 80.0379 185.754C80.4572 185.941 80.8126 186.205 81.1043 186.547C81.4005 186.884 81.6261 187.283 81.7811 187.743C81.936 188.199 82.0135 188.693 82.0135 189.227V189.384C82.0135 189.917 81.936 190.411 81.7811 190.867C81.6261 191.323 81.4005 191.722 81.1043 192.063C80.8126 192.401 80.4594 192.665 80.0447 192.856C79.6346 193.043 79.1697 193.137 78.6502 193.137C78.1307 193.137 77.6635 193.043 77.2488 192.856C76.8341 192.665 76.4786 192.401 76.1824 192.063C75.8908 191.722 75.6674 191.323 75.5125 190.867C75.3575 190.411 75.2801 189.917 75.2801 189.384ZM76.5447 189.227V189.384C76.5447 189.753 76.588 190.102 76.6746 190.43C76.7612 190.753 76.8911 191.04 77.0643 191.291C77.242 191.542 77.463 191.74 77.7273 191.886C77.9917 192.027 78.2993 192.098 78.6502 192.098C78.9965 192.098 79.2996 192.027 79.5594 191.886C79.8237 191.74 80.0424 191.542 80.2156 191.291C80.3888 191.04 80.5187 190.753 80.6053 190.43C80.6964 190.102 80.742 189.753 80.742 189.384V189.227C80.742 188.862 80.6964 188.518 80.6053 188.194C80.5187 187.866 80.3865 187.577 80.2088 187.326C80.0356 187.071 79.8169 186.87 79.5525 186.725C79.2928 186.579 78.9874 186.506 78.6365 186.506C78.2902 186.506 77.9848 186.579 77.7205 186.725C77.4607 186.87 77.242 187.071 77.0643 187.326C76.8911 187.577 76.7612 187.866 76.6746 188.194C76.588 188.518 76.5447 188.862 76.5447 189.227ZM89.037 188.81V189.835H85.1268V188.81H89.037ZM85.3934 185.604V193H84.1288V185.604H85.3934ZM90.0624 185.604V193H88.7909V185.604H90.0624ZM95.4795 192.098C95.7802 192.098 96.0582 192.036 96.3134 191.913C96.5686 191.79 96.7783 191.621 96.9423 191.407C97.1064 191.188 97.1998 190.94 97.2226 190.662H98.4257C98.403 191.1 98.2548 191.507 97.9814 191.886C97.7125 192.259 97.3593 192.562 96.9218 192.795C96.4843 193.023 96.0035 193.137 95.4795 193.137C94.9235 193.137 94.4381 193.039 94.0234 192.843C93.6132 192.647 93.2714 192.378 92.998 192.036C92.7291 191.694 92.5263 191.302 92.3896 190.86C92.2574 190.414 92.1914 189.942 92.1914 189.445V189.158C92.1914 188.661 92.2574 188.192 92.3896 187.75C92.5263 187.303 92.7291 186.909 92.998 186.567C93.2714 186.226 93.6132 185.957 94.0234 185.761C94.4381 185.565 94.9235 185.467 95.4795 185.467C96.0582 185.467 96.5641 185.585 96.997 185.822C97.43 186.055 97.7695 186.374 98.0156 186.779C98.2662 187.18 98.403 187.636 98.4257 188.146H97.2226C97.1998 187.841 97.1132 187.565 96.9629 187.319C96.817 187.073 96.6165 186.877 96.3613 186.731C96.1106 186.581 95.8167 186.506 95.4795 186.506C95.0921 186.506 94.7662 186.583 94.5019 186.738C94.2421 186.889 94.0348 187.094 93.8798 187.354C93.7295 187.609 93.6201 187.894 93.5517 188.208C93.4879 188.518 93.456 188.835 93.456 189.158V189.445C93.456 189.769 93.4879 190.088 93.5517 190.402C93.6155 190.717 93.7226 191.002 93.873 191.257C94.028 191.512 94.2353 191.717 94.4951 191.872C94.7594 192.022 95.0875 192.098 95.4795 192.098ZM102.346 192.234L104.403 185.604H105.757L102.79 194.142C102.722 194.324 102.631 194.52 102.517 194.729C102.407 194.944 102.266 195.146 102.093 195.338C101.92 195.529 101.71 195.684 101.464 195.803C101.222 195.926 100.933 195.987 100.596 195.987C100.495 195.987 100.368 195.974 100.213 195.946C100.058 195.919 99.9486 195.896 99.8848 195.878L99.878 194.853C99.9144 194.857 99.9714 194.862 100.049 194.866C100.131 194.875 100.188 194.88 100.22 194.88C100.507 194.88 100.751 194.841 100.951 194.764C101.152 194.691 101.32 194.565 101.457 194.388C101.598 194.215 101.719 193.975 101.819 193.67L102.346 192.234ZM100.835 185.604L102.756 191.346L103.084 192.679L102.175 193.144L99.4541 185.604H100.835ZM111.974 185.604V186.649H108.399V185.604H111.974ZM113.088 185.604V193H111.823V185.604H113.088ZM108.091 185.604H109.362L109.171 189.172C109.139 189.723 109.087 190.211 109.014 190.635C108.945 191.054 108.85 191.414 108.727 191.715C108.608 192.016 108.458 192.262 108.276 192.453C108.098 192.64 107.884 192.779 107.633 192.87C107.382 192.957 107.093 193 106.765 193H106.368V191.886L106.642 191.865C106.838 191.852 107.004 191.806 107.141 191.729C107.282 191.651 107.401 191.537 107.496 191.387C107.592 191.232 107.669 191.034 107.729 190.792C107.792 190.55 107.84 190.263 107.872 189.931C107.909 189.598 107.936 189.211 107.954 188.769L108.091 185.604ZM116.584 188.146H118.806C119.403 188.146 119.906 188.251 120.317 188.461C120.727 188.666 121.037 188.951 121.246 189.315C121.46 189.675 121.568 190.086 121.568 190.546C121.568 190.888 121.508 191.209 121.39 191.51C121.271 191.806 121.094 192.066 120.857 192.289C120.624 192.512 120.335 192.688 119.988 192.815C119.647 192.938 119.252 193 118.806 193H115.661V185.604H116.926V191.961H118.806C119.17 191.961 119.462 191.895 119.681 191.763C119.9 191.631 120.057 191.46 120.153 191.25C120.248 191.04 120.296 190.822 120.296 190.594C120.296 190.37 120.248 190.152 120.153 189.938C120.057 189.723 119.9 189.546 119.681 189.404C119.462 189.258 119.17 189.186 118.806 189.186H116.584V188.146ZM126.103 185.604V193H124.831V185.604H126.103ZM128.584 185.604V186.629H122.398V185.604H128.584ZM134.5 191.735V187.928C134.5 187.636 134.441 187.383 134.323 187.169C134.209 186.95 134.036 186.782 133.803 186.663C133.571 186.545 133.284 186.485 132.942 186.485C132.623 186.485 132.342 186.54 132.101 186.649C131.864 186.759 131.677 186.902 131.54 187.08C131.408 187.258 131.342 187.449 131.342 187.654H130.077C130.077 187.39 130.146 187.128 130.283 186.868C130.419 186.608 130.615 186.374 130.87 186.164C131.13 185.95 131.44 185.781 131.8 185.658C132.165 185.531 132.57 185.467 133.017 185.467C133.555 185.467 134.029 185.558 134.439 185.74C134.854 185.923 135.177 186.198 135.41 186.567C135.647 186.932 135.765 187.39 135.765 187.941V191.387C135.765 191.633 135.786 191.895 135.827 192.173C135.872 192.451 135.938 192.69 136.025 192.891V193H134.705C134.642 192.854 134.591 192.66 134.555 192.419C134.519 192.173 134.5 191.945 134.5 191.735ZM134.719 188.516L134.733 189.404H133.454C133.094 189.404 132.773 189.434 132.491 189.493C132.208 189.548 131.971 189.632 131.78 189.746C131.588 189.86 131.442 190.004 131.342 190.177C131.242 190.345 131.192 190.544 131.192 190.771C131.192 191.004 131.244 191.216 131.349 191.407C131.454 191.599 131.611 191.751 131.821 191.865C132.035 191.975 132.297 192.029 132.607 192.029C132.994 192.029 133.336 191.947 133.632 191.783C133.928 191.619 134.163 191.419 134.336 191.182C134.514 190.945 134.61 190.715 134.623 190.491L135.163 191.1C135.132 191.291 135.045 191.503 134.904 191.735C134.762 191.968 134.573 192.191 134.336 192.405C134.104 192.615 133.826 192.79 133.502 192.932C133.183 193.068 132.823 193.137 132.422 193.137C131.921 193.137 131.481 193.039 131.103 192.843C130.729 192.647 130.438 192.385 130.228 192.057C130.023 191.724 129.92 191.353 129.92 190.942C129.92 190.546 129.998 190.197 130.153 189.896C130.308 189.591 130.531 189.338 130.823 189.138C131.114 188.933 131.465 188.778 131.875 188.673C132.286 188.568 132.744 188.516 133.249 188.516H134.719ZM138.284 193V185.604H139.548V191.961H142.953V185.604H144.224V193H138.284ZM145.099 191.961L144.976 195.194H143.848V193H142.884V191.961H145.099ZM148.267 185.604V193H146.996V185.604H148.267ZM146.9 183.642C146.9 183.437 146.961 183.263 147.084 183.122C147.212 182.981 147.399 182.91 147.645 182.91C147.887 182.91 148.071 182.981 148.199 183.122C148.331 183.263 148.397 183.437 148.397 183.642C148.397 183.838 148.331 184.006 148.199 184.147C148.071 184.284 147.887 184.353 147.645 184.353C147.399 184.353 147.212 184.284 147.084 184.147C146.961 184.006 146.9 183.838 146.9 183.642ZM152.214 189.473H153.582L151.442 193H150.075L152.214 189.473ZM153.274 185.604H156.364V193H155.099V186.629H153.274C152.914 186.629 152.62 186.69 152.392 186.813C152.164 186.932 151.998 187.087 151.893 187.278C151.788 187.47 151.736 187.668 151.736 187.873C151.736 188.074 151.784 188.267 151.879 188.454C151.975 188.636 152.126 188.787 152.331 188.905C152.536 189.024 152.8 189.083 153.124 189.083H155.441V190.122H153.124C152.7 190.122 152.324 190.065 151.996 189.951C151.668 189.837 151.39 189.68 151.162 189.479C150.934 189.274 150.761 189.035 150.642 188.762C150.524 188.484 150.464 188.183 150.464 187.859C150.464 187.536 150.526 187.237 150.649 186.964C150.777 186.69 150.959 186.451 151.196 186.246C151.437 186.041 151.731 185.884 152.078 185.774C152.429 185.66 152.827 185.604 153.274 185.604ZM165.475 189.466H164.115V188.687H165.373C165.724 188.687 166.002 188.643 166.207 188.557C166.412 188.465 166.558 188.34 166.644 188.181C166.731 188.021 166.774 187.834 166.774 187.62C166.774 187.429 166.724 187.249 166.624 187.08C166.528 186.907 166.373 186.768 166.159 186.663C165.945 186.554 165.658 186.499 165.298 186.499C165.006 186.499 164.742 186.551 164.505 186.656C164.268 186.757 164.079 186.896 163.937 187.073C163.801 187.246 163.732 187.442 163.732 187.661H162.468C162.468 187.21 162.595 186.823 162.85 186.499C163.11 186.171 163.454 185.918 163.883 185.74C164.316 185.562 164.787 185.474 165.298 185.474C165.726 185.474 166.109 185.521 166.446 185.617C166.788 185.708 167.077 185.845 167.314 186.027C167.551 186.205 167.731 186.428 167.854 186.697C167.982 186.962 168.046 187.269 168.046 187.62C168.046 187.871 167.986 188.108 167.868 188.331C167.749 188.554 167.579 188.753 167.355 188.926C167.132 189.094 166.861 189.227 166.542 189.322C166.227 189.418 165.872 189.466 165.475 189.466ZM164.115 188.987H165.475C165.917 188.987 166.307 189.031 166.644 189.117C166.982 189.199 167.264 189.322 167.492 189.486C167.72 189.65 167.891 189.853 168.005 190.095C168.123 190.332 168.182 190.605 168.182 190.915C168.182 191.261 168.112 191.574 167.97 191.852C167.834 192.125 167.638 192.357 167.383 192.549C167.127 192.74 166.822 192.886 166.467 192.986C166.116 193.087 165.726 193.137 165.298 193.137C164.819 193.137 164.354 193.055 163.903 192.891C163.452 192.727 163.081 192.474 162.789 192.132C162.497 191.785 162.351 191.346 162.351 190.812H163.616C163.616 191.036 163.687 191.248 163.828 191.448C163.969 191.649 164.165 191.811 164.416 191.934C164.671 192.057 164.965 192.118 165.298 192.118C165.653 192.118 165.949 192.063 166.186 191.954C166.423 191.845 166.601 191.699 166.719 191.517C166.843 191.334 166.904 191.136 166.904 190.922C166.904 190.644 166.849 190.421 166.74 190.252C166.631 190.083 166.462 189.96 166.234 189.883C166.011 189.801 165.724 189.76 165.373 189.76H164.115V188.987ZM174.245 185.604H175.51V191.961H178.217V185.604H179.488V191.961H182.188V185.604H183.453V193H174.245V185.604ZM187.257 190.997L190.668 185.604H191.939V193H190.668V187.606L187.257 193H185.999V185.604H187.257V190.997ZM195.654 187.025V195.844H194.383V185.604H195.545L195.654 187.025ZM200.638 189.24V189.384C200.638 189.922 200.574 190.421 200.446 190.881C200.319 191.337 200.132 191.733 199.886 192.07C199.644 192.408 199.346 192.67 198.99 192.856C198.635 193.043 198.227 193.137 197.767 193.137C197.297 193.137 196.883 193.059 196.523 192.904C196.163 192.749 195.857 192.524 195.607 192.228C195.356 191.931 195.155 191.576 195.005 191.161C194.859 190.746 194.759 190.279 194.704 189.76V188.994C194.759 188.447 194.861 187.957 195.012 187.524C195.162 187.091 195.36 186.722 195.607 186.417C195.857 186.107 196.16 185.872 196.516 185.713C196.871 185.549 197.281 185.467 197.746 185.467C198.211 185.467 198.623 185.558 198.983 185.74C199.344 185.918 199.647 186.173 199.893 186.506C200.139 186.839 200.323 187.237 200.446 187.702C200.574 188.162 200.638 188.675 200.638 189.24ZM199.366 189.384V189.24C199.366 188.871 199.328 188.525 199.25 188.201C199.173 187.873 199.052 187.586 198.888 187.34C198.728 187.089 198.523 186.893 198.273 186.752C198.022 186.606 197.723 186.533 197.377 186.533C197.058 186.533 196.78 186.588 196.543 186.697C196.311 186.807 196.112 186.955 195.948 187.142C195.784 187.324 195.65 187.534 195.545 187.771C195.445 188.003 195.37 188.244 195.319 188.495V190.266C195.411 190.585 195.538 190.885 195.702 191.168C195.866 191.446 196.085 191.672 196.358 191.845C196.632 192.013 196.976 192.098 197.391 192.098C197.732 192.098 198.026 192.027 198.273 191.886C198.523 191.74 198.728 191.542 198.888 191.291C199.052 191.04 199.173 190.753 199.25 190.43C199.328 190.102 199.366 189.753 199.366 189.384ZM202.336 189.384V189.227C202.336 188.693 202.414 188.199 202.569 187.743C202.723 187.283 202.947 186.884 203.238 186.547C203.53 186.205 203.883 185.941 204.298 185.754C204.713 185.562 205.178 185.467 205.693 185.467C206.212 185.467 206.679 185.562 207.094 185.754C207.513 185.941 207.869 186.205 208.16 186.547C208.457 186.884 208.682 187.283 208.837 187.743C208.992 188.199 209.069 188.693 209.069 189.227V189.384C209.069 189.917 208.992 190.411 208.837 190.867C208.682 191.323 208.457 191.722 208.16 192.063C207.869 192.401 207.515 192.665 207.101 192.856C206.691 193.043 206.226 193.137 205.706 193.137C205.187 193.137 204.72 193.043 204.305 192.856C203.89 192.665 203.535 192.401 203.238 192.063C202.947 191.722 202.723 191.323 202.569 190.867C202.414 190.411 202.336 189.917 202.336 189.384ZM203.601 189.227V189.384C203.601 189.753 203.644 190.102 203.731 190.43C203.817 190.753 203.947 191.04 204.12 191.291C204.298 191.542 204.519 191.74 204.783 191.886C205.048 192.027 205.355 192.098 205.706 192.098C206.053 192.098 206.356 192.027 206.615 191.886C206.88 191.74 207.098 191.542 207.272 191.291C207.445 191.04 207.575 190.753 207.661 190.43C207.752 190.102 207.798 189.753 207.798 189.384V189.227C207.798 188.862 207.752 188.518 207.661 188.194C207.575 187.866 207.443 187.577 207.265 187.326C207.092 187.071 206.873 186.87 206.609 186.725C206.349 186.579 206.043 186.506 205.693 186.506C205.346 186.506 205.041 186.579 204.777 186.725C204.517 186.87 204.298 187.071 204.12 187.326C203.947 187.577 203.817 187.866 203.731 188.194C203.644 188.518 203.601 188.862 203.601 189.227ZM212.449 185.604V193H211.185V185.604H212.449ZM217.303 185.604L213.796 189.842H212.026L211.834 188.734H213.283L215.765 185.604H217.303ZM215.943 193L213.222 189.65L214.035 188.734L217.549 193H215.943ZM220.437 190.997L223.848 185.604H225.119V193H223.848V187.606L220.437 193H219.179V185.604H220.437V190.997ZM231.822 191.318L234.337 185.604H235.554L232.259 193H231.384L228.103 185.604H229.32L231.822 191.318ZM228.951 185.604V193H227.686V185.604H228.951ZM234.652 193V185.604H235.923V193H234.652ZM5.3252 215.735V211.928C5.3252 211.636 5.26595 211.383 5.14746 211.169C5.03353 210.95 4.86035 210.782 4.62793 210.663C4.39551 210.545 4.1084 210.485 3.7666 210.485C3.44759 210.485 3.16732 210.54 2.92578 210.649C2.6888 210.759 2.50195 210.902 2.36523 211.08C2.23307 211.258 2.16699 211.449 2.16699 211.654H0.902344C0.902344 211.39 0.970703 211.128 1.10742 210.868C1.24414 210.608 1.4401 210.374 1.69531 210.164C1.95508 209.95 2.26497 209.781 2.625 209.658C2.98958 209.531 3.39518 209.467 3.8418 209.467C4.37956 209.467 4.85352 209.558 5.26367 209.74C5.67839 209.923 6.00195 210.198 6.23438 210.567C6.47135 210.932 6.58984 211.39 6.58984 211.941V215.387C6.58984 215.633 6.61035 215.895 6.65137 216.173C6.69694 216.451 6.76302 216.69 6.84961 216.891V217H5.53027C5.46647 216.854 5.41634 216.66 5.37988 216.419C5.34342 216.173 5.3252 215.945 5.3252 215.735ZM5.54395 212.516L5.55762 213.404H4.2793C3.91927 213.404 3.59798 213.434 3.31543 213.493C3.03288 213.548 2.7959 213.632 2.60449 213.746C2.41309 213.86 2.26725 214.004 2.16699 214.177C2.06673 214.345 2.0166 214.544 2.0166 214.771C2.0166 215.004 2.06901 215.216 2.17383 215.407C2.27865 215.599 2.43587 215.751 2.64551 215.865C2.8597 215.975 3.12174 216.029 3.43164 216.029C3.81901 216.029 4.16081 215.947 4.45703 215.783C4.75326 215.619 4.98796 215.419 5.16113 215.182C5.33887 214.945 5.43457 214.715 5.44824 214.491L5.98828 215.1C5.95638 215.291 5.86979 215.503 5.72852 215.735C5.58724 215.968 5.39811 216.191 5.16113 216.405C4.92871 216.615 4.65072 216.79 4.32715 216.932C4.00814 217.068 3.64811 217.137 3.24707 217.137C2.74577 217.137 2.30599 217.039 1.92773 216.843C1.55404 216.647 1.26237 216.385 1.05273 216.057C0.847656 215.724 0.745117 215.353 0.745117 214.942C0.745117 214.546 0.822591 214.197 0.977539 213.896C1.13249 213.591 1.35579 213.338 1.64746 213.138C1.93913 212.933 2.29004 212.778 2.7002 212.673C3.11035 212.568 3.56836 212.516 4.07422 212.516H5.54395ZM10.3731 209.604V217H9.10848V209.604H10.3731ZM15.2266 209.604L11.7198 213.842H9.9493L9.75789 212.734H11.2071L13.6886 209.604H15.2266ZM13.8663 217L11.1456 213.65L11.9591 212.734L15.4727 217H13.8663ZM20.008 209.604V217H18.7365V209.604H20.008ZM22.4894 209.604V210.629H16.3029V209.604H22.4894ZM25.5207 214.997L28.9319 209.604H30.2034V217H28.9319V211.606L25.5207 217H24.2629V209.604H25.5207V214.997ZM36.1263 213.746H33.6995L33.6859 212.734H35.6683C36.0602 212.734 36.3861 212.696 36.6458 212.618C36.9101 212.541 37.1084 212.424 37.2405 212.27C37.3727 212.115 37.4388 211.923 37.4388 211.695C37.4388 211.518 37.4001 211.363 37.3226 211.23C37.2497 211.094 37.138 210.982 36.9876 210.896C36.8372 210.804 36.6504 210.738 36.4271 210.697C36.2083 210.652 35.9508 210.629 35.6546 210.629H34.0345V217H32.7698V209.604H35.6546C36.124 209.604 36.5456 209.645 36.9193 209.727C37.2975 209.809 37.6188 209.934 37.8831 210.103C38.152 210.267 38.3571 210.476 38.4984 210.731C38.6396 210.987 38.7103 211.287 38.7103 211.634C38.7103 211.857 38.6647 212.069 38.5736 212.27C38.4824 212.47 38.348 212.648 38.1702 212.803C37.9925 212.958 37.7738 213.085 37.514 213.186C37.2542 213.281 36.9557 213.343 36.6185 213.37L36.1263 213.746ZM36.1263 217H33.2415L33.8704 215.975H36.1263C36.4772 215.975 36.7689 215.931 37.0013 215.845C37.2337 215.754 37.4069 215.626 37.5208 215.462C37.6393 215.293 37.6986 215.093 37.6986 214.86C37.6986 214.628 37.6393 214.43 37.5208 214.266C37.4069 214.097 37.2337 213.969 37.0013 213.883C36.7689 213.792 36.4772 213.746 36.1263 213.746H34.2054L34.2191 212.734H36.6185L37.0765 213.117C37.4821 213.149 37.8262 213.249 38.1087 213.418C38.3913 213.587 38.6055 213.801 38.7513 214.061C38.8971 214.316 38.97 214.594 38.97 214.895C38.97 215.241 38.904 215.546 38.7718 215.811C38.6442 216.075 38.4573 216.296 38.2113 216.474C37.9652 216.647 37.6667 216.779 37.3157 216.87C36.9648 216.957 36.5683 217 36.1263 217ZM40.7504 213.384V213.227C40.7504 212.693 40.8279 212.199 40.9828 211.743C41.1378 211.283 41.3611 210.884 41.6527 210.547C41.9444 210.205 42.2976 209.941 42.7123 209.754C43.127 209.562 43.5919 209.467 44.1068 209.467C44.6264 209.467 45.0935 209.562 45.5082 209.754C45.9275 209.941 46.2829 210.205 46.5746 210.547C46.8708 210.884 47.0964 211.283 47.2514 211.743C47.4063 212.199 47.4838 212.693 47.4838 213.227V213.384C47.4838 213.917 47.4063 214.411 47.2514 214.867C47.0964 215.323 46.8708 215.722 46.5746 216.063C46.2829 216.401 45.9298 216.665 45.515 216.856C45.1049 217.043 44.64 217.137 44.1205 217.137C43.601 217.137 43.1339 217.043 42.7191 216.856C42.3044 216.665 41.949 216.401 41.6527 216.063C41.3611 215.722 41.1378 215.323 40.9828 214.867C40.8279 214.411 40.7504 213.917 40.7504 213.384ZM42.015 213.227V213.384C42.015 213.753 42.0583 214.102 42.1449 214.43C42.2315 214.753 42.3614 215.04 42.5346 215.291C42.7123 215.542 42.9333 215.74 43.1977 215.886C43.462 216.027 43.7696 216.098 44.1205 216.098C44.4669 216.098 44.7699 216.027 45.0297 215.886C45.294 215.74 45.5128 215.542 45.6859 215.291C45.8591 215.04 45.989 214.753 46.0756 214.43C46.1667 214.102 46.2123 213.753 46.2123 213.384V213.227C46.2123 212.862 46.1667 212.518 46.0756 212.194C45.989 211.866 45.8568 211.577 45.6791 211.326C45.5059 211.071 45.2872 210.87 45.0229 210.725C44.7631 210.579 44.4577 210.506 44.1068 210.506C43.7605 210.506 43.4551 210.579 43.1908 210.725C42.9311 210.87 42.7123 211.071 42.5346 211.326C42.3614 211.577 42.2315 211.866 42.1449 212.194C42.0583 212.518 42.015 212.862 42.015 213.227ZM53.7417 215.318L56.2573 209.604H57.4741L54.1792 217H53.3042L50.0229 209.604H51.2397L53.7417 215.318ZM50.8706 209.604V217H49.6059V209.604H50.8706ZM56.5718 217V209.604H57.8432V217H56.5718ZM66.9547 213.466H65.5944V212.687H66.8522C67.2031 212.687 67.4811 212.643 67.6862 212.557C67.8913 212.465 68.0371 212.34 68.1237 212.181C68.2103 212.021 68.2536 211.834 68.2536 211.62C68.2536 211.429 68.2034 211.249 68.1032 211.08C68.0075 210.907 67.8525 210.768 67.6383 210.663C67.4241 210.554 67.137 210.499 66.777 210.499C66.4853 210.499 66.221 210.551 65.984 210.656C65.747 210.757 65.5579 210.896 65.4166 211.073C65.2799 211.246 65.2116 211.442 65.2116 211.661H63.9469C63.9469 211.21 64.0745 210.823 64.3297 210.499C64.5895 210.171 64.9336 209.918 65.362 209.74C65.7949 209.562 66.2666 209.474 66.777 209.474C67.2054 209.474 67.5882 209.521 67.9254 209.617C68.2672 209.708 68.5566 209.845 68.7936 210.027C69.0306 210.205 69.2106 210.428 69.3336 210.697C69.4612 210.962 69.525 211.269 69.525 211.62C69.525 211.871 69.4658 212.108 69.3473 212.331C69.2288 212.554 69.0579 212.753 68.8346 212.926C68.6113 213.094 68.3401 213.227 68.0211 213.322C67.7067 213.418 67.3512 213.466 66.9547 213.466ZM65.5944 212.987H66.9547C67.3968 212.987 67.7864 213.031 68.1237 213.117C68.4609 213.199 68.7435 213.322 68.9713 213.486C69.1992 213.65 69.3701 213.853 69.484 214.095C69.6025 214.332 69.6618 214.605 69.6618 214.915C69.6618 215.261 69.5911 215.574 69.4498 215.852C69.3131 216.125 69.1172 216.357 68.862 216.549C68.6067 216.74 68.3014 216.886 67.9459 216.986C67.595 217.087 67.2054 217.137 66.777 217.137C66.2985 217.137 65.8336 217.055 65.3825 216.891C64.9313 216.727 64.5599 216.474 64.2682 216.132C63.9765 215.785 63.8307 215.346 63.8307 214.812H65.0954C65.0954 215.036 65.166 215.248 65.3073 215.448C65.4485 215.649 65.6445 215.811 65.8952 215.934C66.1504 216.057 66.4443 216.118 66.777 216.118C67.1325 216.118 67.4287 216.063 67.6657 215.954C67.9026 215.845 68.0804 215.699 68.1989 215.517C68.3219 215.334 68.3834 215.136 68.3834 214.922C68.3834 214.644 68.3288 214.421 68.2194 214.252C68.11 214.083 67.9414 213.96 67.7135 213.883C67.4902 213.801 67.2031 213.76 66.8522 213.76H65.5944V212.987ZM76.74 212.81V213.835H72.8298V212.81H76.74ZM73.0964 209.604V217H71.8318V209.604H73.0964ZM77.7654 209.604V217H76.4939V209.604H77.7654ZM84.5838 215.735V211.928C84.5838 211.636 84.5245 211.383 84.4061 211.169C84.2921 210.95 84.1189 210.782 83.8865 210.663C83.6541 210.545 83.367 210.485 83.0252 210.485C82.7062 210.485 82.4259 210.54 82.1844 210.649C81.9474 210.759 81.7605 210.902 81.6238 211.08C81.4917 211.258 81.4256 211.449 81.4256 211.654H80.1609C80.1609 211.39 80.2293 211.128 80.366 210.868C80.5027 210.608 80.6987 210.374 80.9539 210.164C81.2137 209.95 81.5236 209.781 81.8836 209.658C82.2482 209.531 82.6538 209.467 83.1004 209.467C83.6381 209.467 84.1121 209.558 84.5223 209.74C84.937 209.923 85.2605 210.198 85.493 210.567C85.7299 210.932 85.8484 211.39 85.8484 211.941V215.387C85.8484 215.633 85.8689 215.895 85.91 216.173C85.9555 216.451 86.0216 216.69 86.1082 216.891V217H84.7889C84.7251 216.854 84.6749 216.66 84.6385 216.419C84.602 216.173 84.5838 215.945 84.5838 215.735ZM84.8025 212.516L84.8162 213.404H83.5379C83.1779 213.404 82.8566 213.434 82.574 213.493C82.2915 213.548 82.0545 213.632 81.8631 213.746C81.6717 213.86 81.5258 214.004 81.4256 214.177C81.3253 214.345 81.2752 214.544 81.2752 214.771C81.2752 215.004 81.3276 215.216 81.4324 215.407C81.5372 215.599 81.6945 215.751 81.9041 215.865C82.1183 215.975 82.3803 216.029 82.6902 216.029C83.0776 216.029 83.4194 215.947 83.7156 215.783C84.0118 215.619 84.2465 215.419 84.4197 215.182C84.5975 214.945 84.6932 214.715 84.7068 214.491L85.2469 215.1C85.215 215.291 85.1284 215.503 84.9871 215.735C84.8458 215.968 84.6567 216.191 84.4197 216.405C84.1873 216.615 83.9093 216.79 83.5857 216.932C83.2667 217.068 82.9067 217.137 82.5057 217.137C82.0044 217.137 81.5646 217.039 81.1863 216.843C80.8126 216.647 80.521 216.385 80.3113 216.057C80.1062 215.724 80.0037 215.353 80.0037 214.942C80.0037 214.546 80.0812 214.197 80.2361 213.896C80.3911 213.591 80.6144 213.338 80.9061 213.138C81.1977 212.933 81.5486 212.778 81.9588 212.673C82.3689 212.568 82.827 212.516 83.3328 212.516H84.8025ZM93.8358 209.604V217H92.5712V209.604H93.8358ZM93.4052 213.001V214.04C93.15 214.136 92.8902 214.222 92.6259 214.3C92.3661 214.373 92.0904 214.432 91.7987 214.478C91.5116 214.519 91.1994 214.539 90.8622 214.539C90.2789 214.539 89.773 214.439 89.3446 214.238C88.9162 214.033 88.5858 213.726 88.3534 213.315C88.121 212.901 88.0048 212.379 88.0048 211.75V209.59H89.2694V211.75C89.2694 212.16 89.3309 212.493 89.454 212.748C89.577 213.003 89.757 213.192 89.994 213.315C90.231 213.434 90.5204 213.493 90.8622 213.493C91.1903 213.493 91.4979 213.473 91.785 213.432C92.0767 213.386 92.3547 213.327 92.619 213.254C92.8879 213.181 93.15 213.097 93.4052 213.001ZM101.311 212.81V213.835H97.4004V212.81H101.311ZM97.667 209.604V217H96.4023V209.604H97.667ZM102.336 209.604V217H101.064V209.604H102.336ZM104.458 213.384V213.227C104.458 212.693 104.536 212.199 104.69 211.743C104.845 211.283 105.069 210.884 105.36 210.547C105.652 210.205 106.005 209.941 106.42 209.754C106.835 209.562 107.3 209.467 107.814 209.467C108.334 209.467 108.801 209.562 109.216 209.754C109.635 209.941 109.991 210.205 110.282 210.547C110.578 210.884 110.804 211.283 110.959 211.743C111.114 212.199 111.191 212.693 111.191 213.227V213.384C111.191 213.917 111.114 214.411 110.959 214.867C110.804 215.323 110.578 215.722 110.282 216.063C109.991 216.401 109.637 216.665 109.223 216.856C108.813 217.043 108.348 217.137 107.828 217.137C107.309 217.137 106.842 217.043 106.427 216.856C106.012 216.665 105.657 216.401 105.36 216.063C105.069 215.722 104.845 215.323 104.69 214.867C104.536 214.411 104.458 213.917 104.458 213.384ZM105.723 213.227V213.384C105.723 213.753 105.766 214.102 105.853 214.43C105.939 214.753 106.069 215.04 106.242 215.291C106.42 215.542 106.641 215.74 106.905 215.886C107.17 216.027 107.477 216.098 107.828 216.098C108.175 216.098 108.478 216.027 108.737 215.886C109.002 215.74 109.22 215.542 109.394 215.291C109.567 215.04 109.697 214.753 109.783 214.43C109.874 214.102 109.92 213.753 109.92 213.384V213.227C109.92 212.862 109.874 212.518 109.783 212.194C109.697 211.866 109.564 211.577 109.387 211.326C109.214 211.071 108.995 210.87 108.731 210.725C108.471 210.579 108.165 210.506 107.814 210.506C107.468 210.506 107.163 210.579 106.898 210.725C106.639 210.87 106.42 211.071 106.242 211.326C106.069 211.577 105.939 211.866 105.853 212.194C105.766 212.518 105.723 212.862 105.723 213.227ZM117.408 212.741V213.773H113.478V212.741H117.408ZM114.578 209.604V217H113.314V209.604H114.578ZM116.328 213.384V213.227C116.328 212.693 116.406 212.199 116.561 211.743C116.716 211.283 116.939 210.884 117.231 210.547C117.527 210.205 117.88 209.941 118.29 209.754C118.705 209.562 119.17 209.467 119.685 209.467C120.209 209.467 120.678 209.562 121.093 209.754C121.508 209.941 121.861 210.205 122.152 210.547C122.449 210.884 122.674 211.283 122.829 211.743C122.984 212.199 123.062 212.693 123.062 213.227V213.384C123.062 213.917 122.984 214.411 122.829 214.867C122.674 215.323 122.451 215.722 122.159 216.063C121.868 216.401 121.514 216.665 121.1 216.856C120.685 217.043 120.218 217.137 119.698 217.137C119.179 217.137 118.712 217.043 118.297 216.856C117.882 216.665 117.527 216.401 117.231 216.063C116.939 215.722 116.716 215.323 116.561 214.867C116.406 214.411 116.328 213.917 116.328 213.384ZM117.6 213.227V213.384C117.6 213.753 117.643 214.102 117.73 214.43C117.816 214.753 117.946 215.04 118.119 215.291C118.297 215.542 118.516 215.74 118.776 215.886C119.04 216.027 119.347 216.098 119.698 216.098C120.049 216.098 120.355 216.027 120.614 215.886C120.879 215.74 121.097 215.542 121.271 215.291C121.444 215.04 121.574 214.753 121.66 214.43C121.751 214.102 121.797 213.753 121.797 213.384V213.227C121.797 212.862 121.751 212.518 121.66 212.194C121.574 211.866 121.442 211.577 121.264 211.326C121.091 211.071 120.872 210.87 120.608 210.725C120.343 210.579 120.036 210.506 119.685 210.506C119.338 210.506 119.035 210.579 118.776 210.725C118.516 210.87 118.297 211.071 118.119 211.326C117.946 211.577 117.816 211.866 117.73 212.194C117.643 212.518 117.6 212.862 117.6 213.227ZM133.192 215.318L135.707 209.604H136.924L133.629 217H132.754L129.473 209.604H130.69L133.192 215.318ZM130.321 209.604V217H129.056V209.604H130.321ZM136.022 217V209.604H137.293V217H136.022ZM141.124 209.604V217H139.853V209.604H141.124ZM139.757 207.642C139.757 207.437 139.819 207.263 139.942 207.122C140.069 206.981 140.256 206.91 140.502 206.91C140.744 206.91 140.928 206.981 141.056 207.122C141.188 207.263 141.254 207.437 141.254 207.642C141.254 207.838 141.188 208.006 141.056 208.147C140.928 208.284 140.744 208.353 140.502 208.353C140.256 208.353 140.069 208.284 139.942 208.147C139.819 208.006 139.757 207.838 139.757 207.642ZM144.839 211.025V219.844H143.568V209.604H144.73L144.839 211.025ZM149.823 213.24V213.384C149.823 213.922 149.759 214.421 149.631 214.881C149.504 215.337 149.317 215.733 149.071 216.07C148.829 216.408 148.531 216.67 148.175 216.856C147.82 217.043 147.412 217.137 146.952 217.137C146.482 217.137 146.067 217.059 145.707 216.904C145.347 216.749 145.042 216.524 144.791 216.228C144.541 215.931 144.34 215.576 144.19 215.161C144.044 214.746 143.944 214.279 143.889 213.76V212.994C143.944 212.447 144.046 211.957 144.197 211.524C144.347 211.091 144.545 210.722 144.791 210.417C145.042 210.107 145.345 209.872 145.701 209.713C146.056 209.549 146.466 209.467 146.931 209.467C147.396 209.467 147.808 209.558 148.168 209.74C148.528 209.918 148.831 210.173 149.078 210.506C149.324 210.839 149.508 211.237 149.631 211.702C149.759 212.162 149.823 212.675 149.823 213.24ZM148.551 213.384V213.24C148.551 212.871 148.512 212.525 148.435 212.201C148.358 211.873 148.237 211.586 148.073 211.34C147.913 211.089 147.708 210.893 147.457 210.752C147.207 210.606 146.908 210.533 146.562 210.533C146.243 210.533 145.965 210.588 145.728 210.697C145.496 210.807 145.297 210.955 145.133 211.142C144.969 211.324 144.835 211.534 144.73 211.771C144.63 212.003 144.554 212.244 144.504 212.495V214.266C144.595 214.585 144.723 214.885 144.887 215.168C145.051 215.446 145.27 215.672 145.543 215.845C145.817 216.013 146.161 216.098 146.576 216.098C146.917 216.098 147.211 216.027 147.457 215.886C147.708 215.74 147.913 215.542 148.073 215.291C148.237 215.04 148.358 214.753 148.435 214.43C148.512 214.102 148.551 213.753 148.551 213.384ZM151.521 213.384V213.227C151.521 212.693 151.598 212.199 151.753 211.743C151.908 211.283 152.132 210.884 152.423 210.547C152.715 210.205 153.068 209.941 153.483 209.754C153.898 209.562 154.362 209.467 154.877 209.467C155.397 209.467 155.864 209.562 156.279 209.754C156.698 209.941 157.054 210.205 157.345 210.547C157.641 210.884 157.867 211.283 158.022 211.743C158.177 212.199 158.254 212.693 158.254 213.227V213.384C158.254 213.917 158.177 214.411 158.022 214.867C157.867 215.323 157.641 215.722 157.345 216.063C157.054 216.401 156.7 216.665 156.286 216.856C155.876 217.043 155.411 217.137 154.891 217.137C154.372 217.137 153.904 217.043 153.49 216.856C153.075 216.665 152.72 216.401 152.423 216.063C152.132 215.722 151.908 215.323 151.753 214.867C151.598 214.411 151.521 213.917 151.521 213.384ZM152.786 213.227V213.384C152.786 213.753 152.829 214.102 152.916 214.43C153.002 214.753 153.132 215.04 153.305 215.291C153.483 215.542 153.704 215.74 153.968 215.886C154.233 216.027 154.54 216.098 154.891 216.098C155.237 216.098 155.541 216.027 155.8 215.886C156.065 215.74 156.283 215.542 156.457 215.291C156.63 215.04 156.76 214.753 156.846 214.43C156.937 214.102 156.983 213.753 156.983 213.384V213.227C156.983 212.862 156.937 212.518 156.846 212.194C156.76 211.866 156.627 211.577 156.45 211.326C156.277 211.071 156.058 210.87 155.793 210.725C155.534 210.579 155.228 210.506 154.877 210.506C154.531 210.506 154.226 210.579 153.961 210.725C153.702 210.87 153.483 211.071 153.305 211.326C153.132 211.577 153.002 211.866 152.916 212.194C152.829 212.518 152.786 212.862 152.786 213.227ZM164.471 212.741V213.773H160.541V212.741H164.471ZM161.641 209.604V217H160.377V209.604H161.641ZM163.391 213.384V213.227C163.391 212.693 163.469 212.199 163.624 211.743C163.779 211.283 164.002 210.884 164.294 210.547C164.59 210.205 164.943 209.941 165.353 209.754C165.768 209.562 166.233 209.467 166.748 209.467C167.272 209.467 167.741 209.562 168.156 209.754C168.571 209.941 168.924 210.205 169.215 210.547C169.512 210.884 169.737 211.283 169.892 211.743C170.047 212.199 170.125 212.693 170.125 213.227V213.384C170.125 213.917 170.047 214.411 169.892 214.867C169.737 215.323 169.514 215.722 169.222 216.063C168.931 216.401 168.577 216.665 168.163 216.856C167.748 217.043 167.281 217.137 166.761 217.137C166.242 217.137 165.775 217.043 165.36 216.856C164.945 216.665 164.59 216.401 164.294 216.063C164.002 215.722 163.779 215.323 163.624 214.867C163.469 214.411 163.391 213.917 163.391 213.384ZM164.663 213.227V213.384C164.663 213.753 164.706 214.102 164.793 214.43C164.879 214.753 165.009 215.04 165.182 215.291C165.36 215.542 165.579 215.74 165.838 215.886C166.103 216.027 166.41 216.098 166.761 216.098C167.112 216.098 167.418 216.027 167.677 215.886C167.942 215.74 168.16 215.542 168.334 215.291C168.507 215.04 168.637 214.753 168.723 214.43C168.814 214.102 168.86 213.753 168.86 213.384V213.227C168.86 212.862 168.814 212.518 168.723 212.194C168.637 211.866 168.504 211.577 168.327 211.326C168.154 211.071 167.935 210.87 167.671 210.725C167.406 210.579 167.099 210.506 166.748 210.506C166.401 210.506 166.098 210.579 165.838 210.725C165.579 210.87 165.36 211.071 165.182 211.326C165.009 211.577 164.879 211.866 164.793 212.194C164.706 212.518 164.663 212.862 164.663 213.227ZM178.764 213.466H177.404V212.687H178.662C179.013 212.687 179.291 212.643 179.496 212.557C179.701 212.465 179.847 212.34 179.933 212.181C180.02 212.021 180.063 211.834 180.063 211.62C180.063 211.429 180.013 211.249 179.913 211.08C179.817 210.907 179.662 210.768 179.448 210.663C179.234 210.554 178.947 210.499 178.587 210.499C178.295 210.499 178.031 210.551 177.794 210.656C177.557 210.757 177.368 210.896 177.226 211.073C177.09 211.246 177.021 211.442 177.021 211.661H175.757C175.757 211.21 175.884 210.823 176.139 210.499C176.399 210.171 176.743 209.918 177.172 209.74C177.605 209.562 178.076 209.474 178.587 209.474C179.015 209.474 179.398 209.521 179.735 209.617C180.077 209.708 180.366 209.845 180.603 210.027C180.84 210.205 181.02 210.428 181.143 210.697C181.271 210.962 181.335 211.269 181.335 211.62C181.335 211.871 181.275 212.108 181.157 212.331C181.039 212.554 180.868 212.753 180.644 212.926C180.421 213.094 180.15 213.227 179.831 213.322C179.516 213.418 179.161 213.466 178.764 213.466ZM177.404 212.987H178.764C179.206 212.987 179.596 213.031 179.933 213.117C180.271 213.199 180.553 213.322 180.781 213.486C181.009 213.65 181.18 213.853 181.294 214.095C181.412 214.332 181.471 214.605 181.471 214.915C181.471 215.261 181.401 215.574 181.26 215.852C181.123 216.125 180.927 216.357 180.672 216.549C180.416 216.74 180.111 216.886 179.756 216.986C179.405 217.087 179.015 217.137 178.587 217.137C178.108 217.137 177.643 217.055 177.192 216.891C176.741 216.727 176.37 216.474 176.078 216.132C175.786 215.785 175.64 215.346 175.64 214.812H176.905C176.905 215.036 176.976 215.248 177.117 215.448C177.258 215.649 177.454 215.811 177.705 215.934C177.96 216.057 178.254 216.118 178.587 216.118C178.942 216.118 179.238 216.063 179.475 215.954C179.712 215.845 179.89 215.699 180.009 215.517C180.132 215.334 180.193 215.136 180.193 214.922C180.193 214.644 180.138 214.421 180.029 214.252C179.92 214.083 179.751 213.96 179.523 213.883C179.3 213.801 179.013 213.76 178.662 213.76H177.404V212.987ZM185.61 216.234L187.668 209.604H189.021L186.055 218.142C185.986 218.324 185.895 218.52 185.781 218.729C185.672 218.944 185.53 219.146 185.357 219.338C185.184 219.529 184.974 219.684 184.728 219.803C184.487 219.926 184.197 219.987 183.86 219.987C183.76 219.987 183.632 219.974 183.477 219.946C183.322 219.919 183.213 219.896 183.149 219.878L183.142 218.853C183.179 218.857 183.236 218.862 183.313 218.866C183.395 218.875 183.452 218.88 183.484 218.88C183.771 218.88 184.015 218.841 184.216 218.764C184.416 218.691 184.585 218.565 184.722 218.388C184.863 218.215 184.984 217.975 185.084 217.67L185.61 216.234ZM184.099 209.604L186.02 215.346L186.348 216.679L185.439 217.144L182.719 209.604H184.099ZM194.835 215.318L197.351 209.604H198.567L195.272 217H194.397L191.116 209.604H192.333L194.835 215.318ZM191.964 209.604V217H190.699V209.604H191.964ZM197.665 217V209.604H198.936V217H197.665ZM201.059 213.384V213.227C201.059 212.693 201.136 212.199 201.291 211.743C201.446 211.283 201.669 210.884 201.961 210.547C202.253 210.205 202.606 209.941 203.021 209.754C203.435 209.562 203.9 209.467 204.415 209.467C204.935 209.467 205.402 209.562 205.816 209.754C206.236 209.941 206.591 210.205 206.883 210.547C207.179 210.884 207.405 211.283 207.56 211.743C207.715 212.199 207.792 212.693 207.792 213.227V213.384C207.792 213.917 207.715 214.411 207.56 214.867C207.405 215.323 207.179 215.722 206.883 216.063C206.591 216.401 206.238 216.665 205.823 216.856C205.413 217.043 204.948 217.137 204.429 217.137C203.909 217.137 203.442 217.043 203.027 216.856C202.613 216.665 202.257 216.401 201.961 216.063C201.669 215.722 201.446 215.323 201.291 214.867C201.136 214.411 201.059 213.917 201.059 213.384ZM202.323 213.227V213.384C202.323 213.753 202.367 214.102 202.453 214.43C202.54 214.753 202.67 215.04 202.843 215.291C203.021 215.542 203.242 215.74 203.506 215.886C203.77 216.027 204.078 216.098 204.429 216.098C204.775 216.098 205.078 216.027 205.338 215.886C205.602 215.74 205.821 215.542 205.994 215.291C206.167 215.04 206.297 214.753 206.384 214.43C206.475 214.102 206.521 213.753 206.521 213.384V213.227C206.521 212.862 206.475 212.518 206.384 212.194C206.297 211.866 206.165 211.577 205.987 211.326C205.814 211.071 205.595 210.87 205.331 210.725C205.071 210.579 204.766 210.506 204.415 210.506C204.069 210.506 203.763 210.579 203.499 210.725C203.239 210.87 203.021 211.071 202.843 211.326C202.67 211.577 202.54 211.866 202.453 212.194C202.367 212.518 202.323 212.862 202.323 213.227ZM213.271 213.746H210.844L210.83 212.734H212.813C213.205 212.734 213.53 212.696 213.79 212.618C214.054 212.541 214.253 212.424 214.385 212.27C214.517 212.115 214.583 211.923 214.583 211.695C214.583 211.518 214.544 211.363 214.467 211.23C214.394 211.094 214.282 210.982 214.132 210.896C213.982 210.804 213.795 210.738 213.571 210.697C213.353 210.652 213.095 210.629 212.799 210.629H211.179V217H209.914V209.604H212.799C213.268 209.604 213.69 209.645 214.064 209.727C214.442 209.809 214.763 209.934 215.027 210.103C215.296 210.267 215.501 210.476 215.643 210.731C215.784 210.987 215.855 211.287 215.855 211.634C215.855 211.857 215.809 212.069 215.718 212.27C215.627 212.47 215.492 212.648 215.315 212.803C215.137 212.958 214.918 213.085 214.658 213.186C214.399 213.281 214.1 213.343 213.763 213.37L213.271 213.746ZM213.271 217H210.386L211.015 215.975H213.271C213.621 215.975 213.913 215.931 214.146 215.845C214.378 215.754 214.551 215.626 214.665 215.462C214.784 215.293 214.843 215.093 214.843 214.86C214.843 214.628 214.784 214.43 214.665 214.266C214.551 214.097 214.378 213.969 214.146 213.883C213.913 213.792 213.621 213.746 213.271 213.746H211.35L211.363 212.734H213.763L214.221 213.117C214.626 213.149 214.97 213.249 215.253 213.418C215.536 213.587 215.75 213.801 215.896 214.061C216.041 214.316 216.114 214.594 216.114 214.895C216.114 215.241 216.048 215.546 215.916 215.811C215.788 216.075 215.602 216.296 215.356 216.474C215.109 216.647 214.811 216.779 214.46 216.87C214.109 216.957 213.713 217 213.271 217ZM223.172 209.604V210.649H219.597V209.604H223.172ZM224.286 209.604V217H223.022V209.604H224.286ZM219.289 209.604H220.561L220.369 213.172C220.337 213.723 220.285 214.211 220.212 214.635C220.144 215.054 220.048 215.414 219.925 215.715C219.806 216.016 219.656 216.262 219.474 216.453C219.296 216.64 219.082 216.779 218.831 216.87C218.581 216.957 218.291 217 217.963 217H217.567V215.886L217.84 215.865C218.036 215.852 218.202 215.806 218.339 215.729C218.48 215.651 218.599 215.537 218.694 215.387C218.79 215.232 218.868 215.034 218.927 214.792C218.991 214.55 219.039 214.263 219.07 213.931C219.107 213.598 219.134 213.211 219.152 212.769L219.289 209.604ZM230.954 212.741V213.773H227.024V212.741H230.954ZM228.124 209.604V217H226.86V209.604H228.124ZM229.874 213.384V213.227C229.874 212.693 229.952 212.199 230.107 211.743C230.262 211.283 230.485 210.884 230.777 210.547C231.073 210.205 231.426 209.941 231.836 209.754C232.251 209.562 232.716 209.467 233.231 209.467C233.755 209.467 234.224 209.562 234.639 209.754C235.054 209.941 235.407 210.205 235.698 210.547C235.995 210.884 236.22 211.283 236.375 211.743C236.53 212.199 236.608 212.693 236.608 213.227V213.384C236.608 213.917 236.53 214.411 236.375 214.867C236.22 215.323 235.997 215.722 235.705 216.063C235.414 216.401 235.06 216.665 234.646 216.856C234.231 217.043 233.764 217.137 233.244 217.137C232.725 217.137 232.258 217.043 231.843 216.856C231.428 216.665 231.073 216.401 230.777 216.063C230.485 215.722 230.262 215.323 230.107 214.867C229.952 214.411 229.874 213.917 229.874 213.384ZM231.146 213.227V213.384C231.146 213.753 231.189 214.102 231.276 214.43C231.362 214.753 231.492 215.04 231.665 215.291C231.843 215.542 232.062 215.74 232.322 215.886C232.586 216.027 232.893 216.098 233.244 216.098C233.595 216.098 233.901 216.027 234.16 215.886C234.425 215.74 234.643 215.542 234.817 215.291C234.99 215.04 235.12 214.753 235.206 214.43C235.297 214.102 235.343 213.753 235.343 213.384V213.227C235.343 212.862 235.297 212.518 235.206 212.194C235.12 211.866 234.988 211.577 234.81 211.326C234.637 211.071 234.418 210.87 234.154 210.725C233.889 210.579 233.582 210.506 233.231 210.506C232.884 210.506 232.581 210.579 232.322 210.725C232.062 210.87 231.843 211.071 231.665 211.326C231.492 211.577 231.362 211.866 231.276 212.194C231.189 212.518 231.146 212.862 231.146 213.227ZM242.38 212.789V213.828H238.593V212.789H242.38ZM241.628 216.098C241.929 216.098 242.207 216.036 242.462 215.913C242.717 215.79 242.927 215.621 243.091 215.407C243.255 215.188 243.349 214.94 243.371 214.662H244.568C244.545 215.1 244.397 215.507 244.123 215.886C243.854 216.259 243.501 216.562 243.064 216.795C242.631 217.023 242.152 217.137 241.628 217.137C241.072 217.137 240.587 217.039 240.172 216.843C239.757 216.647 239.413 216.378 239.14 216.036C238.871 215.694 238.668 215.302 238.532 214.86C238.399 214.414 238.333 213.942 238.333 213.445V213.158C238.333 212.661 238.399 212.192 238.532 211.75C238.668 211.303 238.873 210.909 239.147 210.567C239.42 210.226 239.762 209.957 240.172 209.761C240.587 209.565 241.07 209.467 241.621 209.467C242.2 209.467 242.706 209.585 243.139 209.822C243.572 210.055 243.911 210.374 244.158 210.779C244.408 211.18 244.545 211.636 244.568 212.146H243.371C243.349 211.841 243.262 211.565 243.112 211.319C242.966 211.073 242.765 210.877 242.51 210.731C242.259 210.581 241.963 210.506 241.621 210.506C241.234 210.506 240.908 210.583 240.644 210.738C240.384 210.889 240.177 211.094 240.022 211.354C239.871 211.609 239.762 211.894 239.694 212.208C239.63 212.518 239.598 212.835 239.598 213.158V213.445C239.598 213.769 239.63 214.088 239.694 214.402C239.762 214.717 239.871 215.002 240.022 215.257C240.177 215.512 240.384 215.717 240.644 215.872C240.908 216.022 241.236 216.098 241.628 216.098ZM246.567 216.33C246.567 216.116 246.633 215.936 246.765 215.79C246.902 215.64 247.098 215.564 247.353 215.564C247.608 215.564 247.802 215.64 247.934 215.79C248.071 215.936 248.139 216.116 248.139 216.33C248.139 216.54 248.071 216.717 247.934 216.863C247.802 217.009 247.608 217.082 247.353 217.082C247.098 217.082 246.902 217.009 246.765 216.863C246.633 216.717 246.567 216.54 246.567 216.33Z" fill="#757575"/>
<rect width="270" height="120" rx="4" fill="#F5F4FA"/>
<g clip-path="url(#clip0_1_549)">
<path d="M132.65 57.7351H134.982V68.2296H132.65V57.7351Z" fill="#2196F3"/>
<path d="M141.978 62.3993H144.31V68.2296H141.978V62.3993Z" fill="#2196F3"/>
<path d="M123.321 65.8975H125.653V68.2296H123.321V65.8975Z" fill="#2196F3"/>
<path d="M116.325 64.7314H118.657V68.2295H116.325V64.7314Z" fill="#2196F3"/>
<path d="M103.498 86.8865H159.469C161.401 86.8865 162.967 85.3202 162.967 83.3883V78.7241C162.967 76.7923 161.401 75.2259 159.469 75.2259H158.303V46.1469L164.926 39.8725C166.463 40.6303 168.324 40.1702 169.33 38.7816C170.337 37.3935 170.196 35.4821 168.997 34.2568C167.798 33.0316 165.89 32.8488 164.48 33.8241C163.07 34.8 162.569 36.6499 163.293 38.2037L158.303 42.9345V40.2443C158.303 38.3124 156.736 36.7461 154.805 36.7461H108.162C106.231 36.7461 104.664 38.3124 104.664 40.2443V75.2259H103.498C101.566 75.2259 100 76.7923 100 78.7241V83.3883C100 85.3202 101.566 86.8865 103.498 86.8865ZM166.465 35.58C167.109 35.58 167.631 36.1021 167.631 36.7461C167.631 37.39 167.109 37.9121 166.465 37.9121C165.821 37.9121 165.299 37.39 165.299 36.7461C165.299 36.1021 165.821 35.58 166.465 35.58ZM106.996 40.2443C106.996 39.6003 107.518 39.0782 108.162 39.0782H154.805C155.449 39.0782 155.971 39.6003 155.971 40.2443V45.1414L153.639 47.3573V42.5764C153.639 41.9324 153.116 41.4103 152.473 41.4103H110.495C109.851 41.4103 109.328 41.9324 109.328 42.5764V71.7278C109.328 72.3717 109.851 72.8938 110.495 72.8938H152.473C153.116 72.8938 153.639 72.3717 153.639 71.7278V50.5651L155.971 48.3554V75.2259H106.996V40.2443ZM117.491 55.403C115.913 55.3984 114.528 56.4495 114.108 57.9703C113.689 59.491 114.338 61.104 115.695 61.9091C117.051 62.7142 118.779 62.5121 119.913 61.4149L123.966 63.4487C124.437 63.6844 125.008 63.5739 125.358 63.1805L133.974 53.4871L142.444 59.8338C142.899 60.1743 143.533 60.1378 143.945 59.7478L151.306 52.7748V70.5617H111.661V43.7424H151.306V49.5619L143.056 57.3747L134.515 50.9716C134.03 50.6084 133.348 50.6767 132.944 51.1294L124.21 60.9571L120.945 59.3242C120.969 59.1841 120.983 59.0429 120.989 58.9012C120.989 56.9693 119.423 55.403 117.491 55.403ZM118.657 58.9012C118.657 59.5451 118.135 60.0672 117.491 60.0672C116.847 60.0672 116.325 59.5451 116.325 58.9012C116.325 58.2572 116.847 57.7351 117.491 57.7351C118.135 57.7351 118.657 58.2572 118.657 58.9012ZM125.653 77.5581H137.314V78.7241C137.314 79.3681 136.792 79.8902 136.148 79.8902H126.819C126.175 79.8902 125.653 79.3681 125.653 78.7241V77.5581ZM102.332 78.7241C102.332 78.0802 102.854 77.5581 103.498 77.5581H123.321V78.7241C123.321 80.656 124.887 82.2223 126.819 82.2223H136.148C138.08 82.2223 139.646 80.656 139.646 78.7241V77.5581H159.469C160.113 77.5581 160.635 78.0802 160.635 78.7241V83.3883C160.635 84.0323 160.113 84.5544 159.469 84.5544H103.498C102.854 84.5544 102.332 84.0323 102.332 83.3883V78.7241Z" fill="#212121"/>
</g>
<defs>
<clipPath id="clip0_1_549">
<rect width="70" height="70" fill="white" transform="translate(100 25)"/>
</clipPath>
</defs>
</svg>
